<svg width="13" height="15" viewBox="0 0 13 15" fill="none" xmlns="http://www.w3.org/2000/svg">
<path d="M11.4583 1.41667H10.75V0H9.33333V1.41667H3.66667V0H2.25V1.41667H1.54167C0.755417 1.41667 0.132083 2.05417 0.132083 2.83333L0.125 12.75C0.125 13.1257 0.274255 13.4861 0.539932 13.7517C0.805609 14.0174 1.16594 14.1667 1.54167 14.1667H11.4583C12.2375 14.1667 12.875 13.5292 12.875 12.75V2.83333C12.875 2.05417 12.2375 1.41667 11.4583 1.41667ZM11.4583 12.75H1.54167V5.66667H11.4583V12.75ZM4.375 8.5H2.95833V7.08333H4.375V8.5ZM7.20833 8.5H5.79167V7.08333H7.20833V8.5ZM10.0417 8.5H8.625V7.08333H10.0417V8.5ZM4.375 11.3333H2.95833V9.91667H4.375V11.3333ZM7.20833 11.3333H5.79167V9.91667H7.20833V11.3333ZM10.0417 11.3333H8.625V9.91667H10.0417V11.3333Z" fill="#FF3A3A"/>
</svg>
