<svg width="21" height="20" viewBox="0 0 21 20" fill="none" xmlns="http://www.w3.org/2000/svg">
<path fill-rule="evenodd" clip-rule="evenodd" d="M6.5 18.0545C6.5 17.1181 7.25917 16.3589 8.19565 16.3589C9.13213 16.3589 9.8913 17.1181 9.8913 18.0545C9.8913 18.991 9.13213 19.7502 8.19565 19.7502C7.25917 19.7502 6.5 18.991 6.5 18.0545Z" fill="#222222"/>
<path fill-rule="evenodd" clip-rule="evenodd" d="M15.8262 18.0545C15.8262 17.1181 16.5853 16.3589 17.5218 16.3589C18.4583 16.3589 19.2175 17.1181 19.2175 18.0545C19.2175 18.991 18.4583 19.7502 17.5218 19.7502C16.5853 19.7502 15.8262 18.991 15.8262 18.0545Z" fill="#222222"/>
<path fill-rule="evenodd" clip-rule="evenodd" d="M0.56543 1.09783C0.56543 0.629585 0.945014 0.25 1.41326 0.25H4.80456C5.20866 0.25 5.55659 0.535196 5.6359 0.931434L6.34797 4.48913H20.0654C20.3181 4.48913 20.5576 4.60183 20.7187 4.79651C20.8797 4.9912 20.9456 5.24758 20.8982 5.49578L19.5405 12.6154C19.4242 13.2009 19.1057 13.7268 18.6407 14.1012C18.178 14.4736 17.5996 14.6723 17.0059 14.663H8.77971C8.18601 14.6723 7.60765 14.4736 7.14497 14.1012C6.68016 13.727 6.36171 13.2013 6.2453 12.6161C6.24525 12.6159 6.24534 12.6163 6.2453 12.6161L4.82897 5.53976C4.82322 5.51635 4.81845 5.49256 4.81469 5.46843L4.10961 1.94565H1.41326C0.945014 1.94565 0.56543 1.56607 0.56543 1.09783ZM6.68735 6.18478L7.90832 12.285C7.94708 12.4802 8.05325 12.6555 8.20825 12.7803C8.36325 12.9051 8.5572 12.9714 8.75614 12.9675L8.77239 12.9674H17.0133L17.0295 12.9675C17.2284 12.9714 17.4224 12.9051 17.5774 12.7803C17.7317 12.6561 17.8376 12.4818 17.8768 12.2878L19.0406 6.18478H6.68735Z" fill="#222222"/>
</svg>
