<?xml version="1.0" encoding="utf-8"?>
<!-- Generator: Adobe Illustrator 23.0.1, SVG Export Plug-In . SVG Version: 6.00 Build 0)  -->
<svg version="1.1" id="Layer_1" xmlns="http://www.w3.org/2000/svg" xmlns:xlink="http://www.w3.org/1999/xlink" x="0px" y="0px"
	 viewBox="0 0 1080 1080" style="enable-background:new 0 0 1080 1080;" xml:space="preserve">
<style type="text/css">
	.st0{fill:#008DD2;}
</style>
<g>
	<path class="st0" d="M612.5,598.1c-1.8,0.3-3.6,0.5-5.4,0.8c-8,1.5-13.5,7.5-14.5,15.5c-1,8.7-3,10.7-11.6,11.7
		c-8.4,1-14.2,6.7-15.7,15.2c-0.4,2.7-0.3,5.5-2.1,7.9c-1.8,2.3-4,3.6-6.9,4c-12.6,1.7-16.6,5.7-18.7,18.4c-0.1,0.7-0.4,1.3-0.8,2.3
		c-1.1-1.1-2-1.9-2.9-2.8c-25.9-25.9-51.8-51.8-77.6-77.6c-5-5-5-7.2-0.1-12.1c21.5-21.5,42.9-42.9,64.4-64.4
		c4.7-4.7,7.1-4.7,11.6-0.2c26.1,26.1,52.3,52.3,78.4,78.4c0.7,0.7,1.7,1.1,2.6,1.6C613,597.3,612.7,597.7,612.5,598.1z"/>
	<path class="st0" d="M380.8,453.6c0.1-4.4,2.3-8.2,6.8-10.5c4.7-2.4,9.3-1.9,13.3,1.4c3.9,3.1,5.7,7.4,4.3,12.3
		c-0.7,2.5,0.2,3.9,1.8,5.4c25.3,25.2,50.5,50.5,75.9,75.6c2.9,2.9,1.1,3.8-0.5,5.7c-1.8,2-3,2.9-5.5,0.4
		c-25-25.3-50.3-50.4-75.4-75.6c-1.8-1.8-3.2-2.7-6.1-2C387.8,468,380.8,462,380.8,453.6z"/>
	<path class="st0" d="M430.2,417.9c0-5.8,4.2-11,9.8-12.1c6.1-1.2,12.1,2,14.3,7.7c2.2,5.6,0.3,12.1-5.1,15
		c-2.8,1.5-3.1,3.1-2.6,5.9c3,16.5,10.9,30.7,19.9,44.4c9.9,15.1,21.2,29,33.9,41.8c3.6,3.6-0.2,4.4-1.5,6.2
		c-1.7,2.5-2.9,1.4-4.5-0.3c-19.1-20.4-36.6-41.9-48.6-67.5c-4.1-8.7-7.2-17.8-8-27.5c-0.1-1.7-1.1-2.3-2.2-3.1
		C432,425.7,430.2,422.2,430.2,417.9z"/>
	<path class="st0" d="M356.5,491.1c4.9,0.1,8.3,2,10.8,5.4c0.7,1,1,2.1,2.6,2.3c18.9,2,35.2,10.6,50.8,20.7
		c16.1,10.4,30.8,22.6,44.7,35.8c1.6,1.6,2.9,2.9,0.3,4.6c-1.9,1.3-2.7,4.9-6.3,1.4c-19.2-18.4-39.8-34.9-64-46.5
		c-7.2-3.5-14.7-6-22.7-7.4c-2.6-0.4-3.9,0-5.2,2.5c-2.7,5-8.5,7.1-13.8,5.6c-5.4-1.5-9.2-6.3-9.2-11.9c-0.1-5.5,3.5-10.5,8.9-12.1
		C354.6,491.3,355.9,491.3,356.5,491.1z"/>
</g>
</svg>
