<svg width="20" height="18" viewBox="0 0 20 18" fill="none" xmlns="http://www.w3.org/2000/svg">
<path d="M9.96721 18C9.70492 18 9.53005 17.9109 9.35519 17.7327L1.6612 9.89109C0.612022 8.82178 0 7.30693 0 5.79208C0 4.27723 0.612022 2.76238 1.6612 1.69307C2.71038 0.623762 4.10929 0 5.59563 0C7.08197 0 8.56831 0.623762 9.61749 1.69307L9.96721 2.04951L10.3169 1.69307C11.3661 0.623762 12.765 0 14.3388 0C15.8251 0 17.3115 0.623762 18.3607 1.69307C20.5464 3.92079 20.5464 7.66337 18.3607 9.89109L10.6667 17.7327C10.4044 17.9109 10.2295 18 9.96721 18ZM5.59563 1.78218C4.63388 1.78218 3.5847 2.13861 2.88525 2.94059C1.31148 4.54455 1.31148 7.0396 2.88525 8.64356L9.96721 15.8614L17.0492 8.64356C17.8361 7.84158 18.1858 6.86139 18.1858 5.79208C18.1858 4.72277 17.7486 3.74257 17.0492 2.94059C16.3497 2.22772 15.388 1.78218 14.3388 1.78218C13.2896 1.78218 12.3279 2.22772 11.541 2.94059L10.6667 3.92079C10.3169 4.27723 9.79235 4.27723 9.44262 3.92079L8.48087 2.94059C7.69399 2.13861 6.64481 1.78218 5.59563 1.78218Z" fill="black"/>
</svg>
