<svg width="18" height="18" viewBox="0 0 18 18" fill="none" xmlns="http://www.w3.org/2000/svg">
<path d="M16.965 5.38364C16.9561 4.66765 16.8299 3.95878 16.5923 3.28874C16.3862 2.72356 16.0715 2.21028 15.6682 1.78169C15.2649 1.3531 14.7819 1.01862 14.25 0.799628C13.6276 0.551338 12.9701 0.417083 12.3054 0.40258C11.4496 0.36193 11.1783 0.350586 9.00596 0.350586C6.83361 0.350586 6.55517 0.350586 5.70562 0.40258C5.04124 0.41719 4.38401 0.551443 3.76189 0.799628C3.22997 1.01847 2.74689 1.35289 2.34357 1.7815C1.94024 2.21011 1.62555 2.72347 1.41962 3.28874C1.18551 3.94966 1.05945 4.64826 1.04689 5.35433C1.00863 6.26471 0.99707 6.55304 0.99707 8.86159C0.99707 11.1701 0.99707 11.4651 1.04689 12.3688C1.06023 13.076 1.18566 13.7736 1.41962 14.4363C1.62589 15.0014 1.94082 15.5146 2.34428 15.943C2.74774 16.3714 3.23086 16.7057 3.76278 16.9245C4.3832 17.1828 5.04054 17.3266 5.70651 17.3499C6.56317 17.3905 6.8345 17.4028 9.00685 17.4028C11.1792 17.4028 11.4576 17.4028 12.3072 17.3499C12.9718 17.336 13.6294 17.202 14.2518 16.9538C14.7835 16.7345 15.2664 16.4 15.6697 15.9714C16.0729 15.5429 16.3878 15.0297 16.5941 14.4647C16.828 13.8029 16.9535 13.1053 16.9668 12.3972C17.0051 11.4878 17.0166 11.1994 17.0166 8.88995C17.0149 6.5814 17.0149 6.28834 16.965 5.38364V5.38364ZM9.00062 13.2272C6.72864 13.2272 4.88809 11.2713 4.88809 8.85686C4.88809 6.44243 6.72864 4.4865 9.00062 4.4865C10.0913 4.4865 11.1374 4.94695 11.9086 5.76655C12.6799 6.58615 13.1132 7.69777 13.1132 8.85686C13.1132 10.016 12.6799 11.1276 11.9086 11.9472C11.1374 12.7668 10.0913 13.2272 9.00062 13.2272V13.2272ZM13.2768 5.34393C13.1509 5.34406 13.0261 5.31778 12.9097 5.26661C12.7933 5.21544 12.6876 5.14038 12.5985 5.04573C12.5094 4.95107 12.4388 4.83868 12.3906 4.71498C12.3425 4.59128 12.3178 4.45871 12.3179 4.32484C12.3179 4.19108 12.3427 4.05862 12.3908 3.93504C12.439 3.81145 12.5096 3.69916 12.5986 3.60457C12.6876 3.50999 12.7933 3.43496 12.9096 3.38377C13.0259 3.33257 13.1505 3.30623 13.2764 3.30623C13.4023 3.30623 13.5269 3.33257 13.6432 3.38377C13.7595 3.43496 13.8652 3.50999 13.9542 3.60457C14.0432 3.69916 14.1138 3.81145 14.162 3.93504C14.2101 4.05862 14.2349 4.19108 14.2349 4.32484C14.2349 4.88827 13.8061 5.34393 13.2768 5.34393Z" fill="#999999"/>
<path d="M9.00735 11.7159C10.4827 11.7159 11.6788 10.4449 11.6788 8.87698C11.6788 7.3091 10.4827 6.03809 9.00735 6.03809C7.53197 6.03809 6.33594 7.3091 6.33594 8.87698C6.33594 10.4449 7.53197 11.7159 9.00735 11.7159Z" fill="#999999"/>
</svg>
