<svg width="18" height="18" viewBox="0 0 18 18" fill="none" xmlns="http://www.w3.org/2000/svg">
<path d="M2.06208 4.1417C3.20093 4.1417 4.12416 3.21837 4.12416 2.07939C4.12416 0.940415 3.20093 0.0170898 2.06208 0.0170898C0.923224 0.0170898 0 0.940415 0 2.07939C0 3.21837 0.923224 4.1417 2.06208 4.1417Z" fill="#999999"/>
<path d="M6.07173 5.72612V17.1678H9.62382V11.5096C9.62382 10.0166 9.90467 8.57075 11.7556 8.57075C13.5812 8.57075 13.6038 10.2777 13.6038 11.6039V17.1687H17.1578V10.8941C17.1578 7.81199 16.4943 5.44336 12.8922 5.44336C11.1628 5.44336 10.0036 6.39251 9.52957 7.29076H9.48151V5.72612H6.07173V5.72612ZM0.283203 5.72612H3.84095V17.1678H0.283203V5.72612Z" fill="#999999"/>
</svg>
