<svg width="18" height="18" viewBox="0 0 18 18" fill="none" xmlns="http://www.w3.org/2000/svg">
<path d="M9.32117 0C4.5313 0 0.649414 3.88276 0.649414 8.67175C0.649414 12.3453 2.93497 15.4859 6.16149 16.7498C6.0851 16.064 6.01739 15.0085 6.191 14.2602C6.34899 13.5831 7.20835 9.94951 7.20835 9.94951C7.20835 9.94951 6.94881 9.42956 6.94881 8.66134C6.94881 7.45649 7.64758 6.55633 8.51823 6.55633C9.25867 6.55633 9.61544 7.11188 9.61544 7.77767C9.61544 8.52245 9.14148 9.63441 8.89756 10.6657C8.69357 11.5285 9.33072 12.2325 10.1814 12.2325C11.7222 12.2325 12.9079 10.6075 12.9079 8.26117C12.9079 6.18481 11.4158 4.73344 9.28558 4.73344C6.81773 4.73344 5.36897 6.58411 5.36897 8.49641C5.36897 9.24119 5.65629 10.0407 6.01479 10.4755C6.04526 10.5083 6.06677 10.5483 6.07726 10.5918C6.08775 10.6353 6.08686 10.6808 6.07469 10.7238C6.00871 10.9972 5.86202 11.5866 5.83424 11.7073C5.79604 11.8662 5.70837 11.9 5.54344 11.8236C4.46099 11.3193 3.78392 9.73598 3.78392 8.46342C3.78392 5.72822 5.77087 3.2161 9.51387 3.2161C12.5225 3.2161 14.8602 5.3593 14.8602 8.22471C14.8602 11.2143 12.9756 13.6179 10.3602 13.6179C9.48089 13.6179 8.65538 13.1621 8.3724 12.6231L7.83161 14.6838C7.6363 15.4373 7.10766 16.3817 6.75436 16.9581C7.58605 17.2149 8.45162 17.3451 9.32204 17.3444C14.111 17.3444 17.9938 13.4616 17.9938 8.67262C17.9938 3.88363 14.1102 0 9.32117 0Z" fill="#999999"/>
</svg>
