<?xml version="1.0" encoding="utf-8"?>
<!-- Generator: Adobe Illustrator 23.0.1, SVG Export Plug-In . SVG Version: 6.00 Build 0)  -->
<svg version="1.1" id="Layer_1" xmlns="http://www.w3.org/2000/svg" xmlns:xlink="http://www.w3.org/1999/xlink" x="0px" y="0px"
	 viewBox="0 0 1080 1080" style="enable-background:new 0 0 1080 1080;" xml:space="preserve">
<style type="text/css">
	.st0{fill:#008DD2;}
</style>
<g>
	<path class="st0" d="M545.3,310.5c2.7,0.6,5.3,1.2,8,1.9c23,6.5,38.5,26.8,38.5,50.8c0.1,60.4,0,120.7,0,181.1c0,2.9,0.9,4.7,3,6.7
		c24.8,23.8,33.3,52.7,23.1,85.4c-10,32.3-33,51.8-66.4,57c-51.8,8.1-97.4-33.9-94.5-86.2c1.3-22.5,10.5-41.4,27.2-56.5
		c2-1.8,2.7-3.5,2.7-6.1c-0.1-59.9-0.1-119.7-0.1-179.6c0-28.3,17.2-48.9,45.1-54c0.5-0.1,0.9-0.4,1.4-0.6
		C537.3,310.5,541.3,310.5,545.3,310.5z M576.7,456.1c0-31,0.1-62,0-93c-0.1-24-21.2-41.2-44.7-36.9c-17.8,3.3-30.3,18.9-30.3,38
		c0,61.7,0,123.5,0,185.2c0,4.2-1.3,7.2-4.6,10c-19.4,16.1-27.7,36.7-24.7,61.8c4.4,37.6,42,64.9,79.2,57.1
		c27.7-5.8,46.1-22.6,52.9-50.1c6.8-27.3-1.6-50.5-23.1-68.7c-3.2-2.7-4.7-5.7-4.7-9.9C576.8,518.4,576.8,487.2,576.7,456.1z"/>
	<path class="st0" d="M636.4,355.5c-7,0-14,0-20.9,0c-5.2,0-8.5-2.9-8.6-7.3c-0.1-4.5,3.3-7.6,8.7-7.7c14.2,0,28.4,0,42.6,0
		c5.2,0,8.5,2.9,8.6,7.3c0.1,4.5-3.3,7.6-8.7,7.7C650.8,355.5,643.6,355.5,636.4,355.5z"/>
	<path class="st0" d="M636.7,430.5c7.1,0,14.2,0,21.3,0c5.3,0,8.8,3.1,8.7,7.7c-0.1,4.4-3.5,7.3-8.6,7.3c-14.2,0-28.4,0-42.6,0
		c-5.3,0-8.8-3.1-8.7-7.7c0.1-4.4,3.4-7.3,8.6-7.3C622.5,430.5,629.6,430.5,636.7,430.5z"/>
	<path class="st0" d="M637.2,520.5c7,0,14,0,20.9,0c5.2,0,8.5,2.9,8.6,7.3c0.1,4.5-3.4,7.6-8.7,7.6c-14.2,0-28.4,0-42.6,0
		c-5.2,0-8.5-2.9-8.6-7.3c-0.1-4.5,3.3-7.6,8.7-7.6C622.7,520.5,629.9,520.5,637.2,520.5z"/>
	<path class="st0" d="M629.6,385.5c4.6,0,9.2-0.1,13.8,0c4.9,0.1,8.2,3,8.3,7.3c0.1,4.4-3.3,7.6-8.3,7.7c-9.5,0.1-18.9,0.1-28.4,0
		c-5,0-8.4-3.3-8.3-7.7c0.1-4.3,3.4-7.2,8.3-7.3C619.9,385.5,624.8,385.5,629.6,385.5z"/>
	<path class="st0" d="M628.9,490.5c-4.6,0-9.2,0.1-13.8,0c-5-0.1-8.4-3.3-8.3-7.7c0.1-4.3,3.4-7.3,8.3-7.3c9.5-0.1,18.9-0.1,28.4,0
		c4.9,0,8.2,3,8.3,7.3c0.1,4.4-3.3,7.6-8.3,7.7C638.6,490.6,633.7,490.5,628.9,490.5z"/>
	<path class="st0" d="M546.8,468.2c0,34.2,0,68.5-0.1,102.7c0,3,0.6,4.4,3.8,5.4c18.8,5.8,29.7,25,25.4,44
		c-4.2,18.5-22.5,31.5-40.8,29c-20.2-2.8-34.3-19.5-33.2-39.6c0.8-15.1,11.4-28.9,26-33.3c3.4-1,4-2.5,4-5.7
		c-0.1-68.2-0.1-136.5-0.1-204.7c0-6.9,2.5-10.4,7.4-10.5c5-0.1,7.6,3.6,7.6,10.6C546.8,400.2,546.8,434.2,546.8,468.2z"/>
</g>
</svg>
