<svg width="22" height="18" viewBox="0 0 22 18" fill="none" xmlns="http://www.w3.org/2000/svg">
<path d="M7.17305 17.8058C8.82194 17.8161 10.4565 17.499 11.9818 16.8728C13.5072 16.2466 14.8931 15.3237 16.059 14.1578C17.225 12.9918 18.1479 11.606 18.7741 10.0806C19.4003 8.5552 19.7174 6.92066 19.7071 5.27178V4.69584C20.5618 4.06962 21.3016 3.30008 21.8937 2.42137C21.0888 2.77337 20.2372 3.00682 19.3654 3.11445C20.2897 2.56367 20.9833 1.69673 21.3177 0.674025C20.4563 1.19085 19.5116 1.55417 18.5259 1.74781C17.862 1.04045 16.9835 0.571582 16.0264 0.413765C15.0692 0.255948 14.0867 0.417975 13.2309 0.874778C12.3751 1.33158 11.6937 2.05769 11.2921 2.94076C10.8905 3.82383 10.7912 4.81464 11.0094 5.75986C9.25817 5.6739 7.54469 5.22006 5.98052 4.42789C4.41635 3.63571 3.03658 2.52297 1.93103 1.16211C1.37356 2.12966 1.20459 3.2729 1.45833 4.36035C1.71207 5.4478 2.36955 6.3982 3.29766 7.01912C2.61299 6.99271 1.94416 6.80544 1.34533 6.47246V6.52127C1.33924 7.53242 1.67988 8.51511 2.31047 9.30557C2.94106 10.096 3.8235 10.6465 4.81073 10.8652C4.17391 11.0365 3.50685 11.0632 2.85839 10.9433C3.1442 11.8056 3.68977 12.5585 4.4203 13.0985C5.15083 13.6385 6.03054 13.9393 6.93877 13.9597C5.38589 15.2097 3.45589 15.8977 1.46247 15.912C1.11295 15.9019 0.764262 15.8726 0.417969 15.8242C2.43566 17.1097 4.78066 17.7874 7.17305 17.7765" fill="#999999"/>
</svg>
