<svg width="22" height="22" viewBox="0 0 22 22" fill="none" xmlns="http://www.w3.org/2000/svg">
<path d="M19.0618 17.6977C20.1388 16.4018 20.888 14.8655 21.2458 13.2189C21.6035 11.5722 21.5595 9.86357 21.1173 8.23754C20.6751 6.61151 19.8477 5.1159 18.7052 3.87724C17.5628 2.63857 16.1388 1.69329 14.5537 1.12137C12.9686 0.549439 11.2691 0.367687 9.59897 0.591487C7.92881 0.815287 6.33711 1.43805 4.95854 2.40711C3.57996 3.37616 2.45506 4.66299 1.67899 6.15873C0.902928 7.65448 0.498528 9.31514 0.500004 11.0002C0.50057 13.4499 1.36381 15.8211 2.93825 17.6977L2.92325 17.7105C2.97575 17.7735 3.03575 17.8275 3.08975 17.8897C3.15725 17.967 3.23 18.0397 3.29975 18.1147C3.50975 18.3427 3.72575 18.5617 3.95225 18.7672C4.02125 18.8302 4.0925 18.8887 4.16225 18.9487C4.40225 19.1557 4.649 19.3522 4.90475 19.5352C4.93775 19.5577 4.96775 19.587 5.00075 19.6102V19.6012C6.75733 20.8374 8.85283 21.5008 11.0008 21.5008C13.1487 21.5008 15.2442 20.8374 17.0008 19.6012V19.6102C17.0338 19.587 17.063 19.5577 17.0968 19.5352C17.3518 19.3515 17.5993 19.1557 17.8393 18.9487C17.909 18.8887 17.9803 18.8295 18.0493 18.7672C18.2758 18.561 18.4918 18.3427 18.7018 18.1147C18.7715 18.0397 18.8435 17.967 18.9118 17.8897C18.965 17.8275 19.0258 17.7735 19.0783 17.7097L19.0618 17.6977ZM11 5.00023C11.6675 5.00023 12.32 5.19817 12.8751 5.56902C13.4301 5.93987 13.8627 6.46697 14.1181 7.08367C14.3735 7.70037 14.4404 8.37897 14.3102 9.03366C14.1799 9.68834 13.8585 10.2897 13.3865 10.7617C12.9145 11.2337 12.3131 11.5552 11.6584 11.6854C11.0037 11.8156 10.3251 11.7488 9.70845 11.4933C9.09175 11.2379 8.56464 10.8053 8.19379 10.2503C7.82294 9.69526 7.625 9.04274 7.625 8.37523C7.625 7.48012 7.98058 6.62168 8.61352 5.98874C9.24645 5.35581 10.1049 5.00023 11 5.00023V5.00023ZM5.00525 17.6977C5.01826 16.713 5.41846 15.7729 6.11927 15.0809C6.82008 14.389 7.76514 14.0007 8.75 14.0002H13.25C14.2349 14.0007 15.1799 14.389 15.8807 15.0809C16.5815 15.7729 16.9817 16.713 16.9948 17.6977C15.3499 19.18 13.2142 20.0003 11 20.0003C8.78581 20.0003 6.65012 19.18 5.00525 17.6977V17.6977Z" fill="#222222"/>
</svg>
