<?xml version="1.0" encoding="utf-8"?>
<!-- Generator: Adobe Illustrator 23.0.1, SVG Export Plug-In . SVG Version: 6.00 Build 0)  -->
<svg version="1.1" id="Layer_1" xmlns="http://www.w3.org/2000/svg" xmlns:xlink="http://www.w3.org/1999/xlink" x="0px" y="0px"
	 viewBox="0 0 1080 1080" style="enable-background:new 0 0 1080 1080;" xml:space="preserve">
<style type="text/css">
	.st0{fill:#008DD2;}
</style>
<g>
	<path class="st0" d="M545.6,635.9c-29.7,0-59.5,0-89.2,0c-11.3,0-21.4-3.2-29.6-11.3c-4.6-4.6-7.8-10.1-9-16.5
		c-0.3-1.8-0.8-2.8-3-3c-25.6-2-41.6-16.8-51.7-39.3c-6.5-14.4-10-29.8-14.3-44.9c-1.4-5-3-10.1-5.2-14.8c-1.9-4-4-7.7-8.3-9.8
		c-2.1-1-2.6-2.8-1.9-5.1c1.8-5.6,6.4-7.4,11.5-8.1c8.4-1.1,15,1.1,19.5,9.2c5,9.1,9.6,18.4,14.4,27.6c4.5,8.5,9,17,15.4,24.3
		c4.9,5.6,10.5,10.1,18.6,9.4c2.9-0.2,4.2-1.1,4.2-4.5c0.1-10.9-2-22,0.8-32.5c4.2-15.5,2.5-31,2.7-46.5c0.2-16.3-0.1-32.5,4.2-48.4
		c12.9-47.5,44-76.6,91.4-87.8c35.5-8.4,69.7-3.8,100.9,15.8c31.6,19.8,48.6,49.1,52.6,86c2.3,21.7,0.6,43.5,1,65.2
		c0,2.8,0.3,5.4,1.3,8.1c2,5.3,2.6,10.9,2.6,16.6c0,24.7-0.3,49.5,0.1,74.2c0.3,20.4-16,33.7-31.9,35.5c-3.1,0.3-6.2,0.5-9.3,0.5
		C604.1,635.9,574.8,635.9,545.6,635.9z M545.5,628.1c29.4,0,58.7,0,88.1,0c2.2,0,4.5-0.1,6.7-0.2c13.4-0.9,26.9-11.8,26.6-28.4
		c-0.5-24.2-0.4-48.5,0-72.7c0.4-23.5-16.1-40.6-35.1-46.3c-1.1-0.3-2.1-0.7-3.3-0.2c-12.8,5.8-26.5,6.8-40.2,7.9
		c-30.7,2.4-61.4,2.3-92.1-0.6c-11.2-1.1-22.4-2.4-32.8-7c-1.1-0.5-2.1-0.6-3.2-0.2c-19,5.7-35.2,21.5-35.5,43.7
		c-0.4,25.9-0.2,51.7-0.1,77.6c0,7.8,3.4,14.2,9.4,19.2c6.5,5.5,14.2,7.3,22.6,7.3C486.3,628,515.9,628.1,545.5,628.1z M644.7,458
		c0-7.5-0.2-15-1.3-22.4c-4.3-29-17.7-52.3-43.5-67.3c-23.8-13.8-49.5-16.9-76-11.1c-29.9,6.5-52.9,22.7-66.8,50.6
		c-10.8,21.5-10.7,44.6-10.2,67.8c0,0.6,0.1,1.6,0.9,1.3c3.5-1.4,8.1-2,10-4.6c3.9-5.5,9.4-7.7,15.1-9.5c15.1-4.8,30.8-6.2,46.5-7.3
		c7.9-0.6,7.9-0.4,5.1-7.9c-2.5-6.7-1.2-9.2,5.9-10.9c7.7-1.9,15.6-1.8,23.5-1.2c3.9,0.3,7.7,0.7,11.3,2.5c3.4,1.8,4.2,3.8,2.8,7.3
		c-0.9,2.3-1.6,4.7-2.6,7c-1,2.3-0.1,2.9,2,2.9c1.1,0,2.2,0,3.4,0.1c16.3,1.1,32.6,2.6,48.4,7.5c4.3,1.3,9.1,2.5,11.8,6.1
		c2.9,3.8,6.8,5,10.5,7c3.4,1.8,3.6,0.3,3.5-2.5C644.6,468.2,644.7,463.1,644.7,458z M342.8,491.7c5.4,5,8.2,11.2,10.4,17.6
		c3.3,9.4,5.6,19.1,8.3,28.7c4,13.8,8.4,27.5,17.1,39.2c8.9,12,20.8,18.7,35.7,20.1c1.4,0.1,2.7,0.5,2.7-1.8
		c-0.1-10.9,0-21.7,0-32.6c0-1.4-0.4-2.1-1.9-1.8c-10.7,2-18.6-3.1-25.4-10.4c-7.8-8.3-13-18.3-18.2-28.2
		c-4.5-8.6-8.4-17.5-13.5-25.8C354,490.3,350.4,489.1,342.8,491.7z M545.7,462.6c7.1,0,7.6-0.4,10-6.8c1.2-3.1,2.3-6.3,3.6-9.4
		c0.7-1.8,0.2-2.4-1.6-2.7c-7.9-1.2-15.9-1.2-23.8,0c-2.1,0.3-2.3,1.1-1.5,3c1.3,3,2.3,6.1,3.4,9.1
		C538.2,462.2,538.7,462.5,545.7,462.6z"/>
	<path class="st0" d="M364.6,403.3c0.3,4.8-1.7,8.8-4.5,12.4c-5.2,6.7-5.2,10.2,0,17c6.3,8.4,6.3,16.3-0.1,24.7
		c-2,2.6-3.7,5.3-3.8,8.7c-0.1,2.4-1.7,3.6-4,3.4c-2.4-0.2-3.4-1.7-3.5-4.1c-0.1-4.2,1.4-7.8,3.9-11.1c6.1-8.2,6.1-10.5,0-18.8
		c-5.3-7.3-5.3-15.7,0.1-22.9c6.1-8.1,6.1-10.5-0.1-18.8c-2.4-3.3-3.9-6.9-3.8-11.1c0.1-2.3,1.2-3.9,3.5-4c2.4-0.2,3.9,1.2,4,3.5
		c0.1,3.6,1.9,6.4,4,9C363.1,394.8,364.8,398.8,364.6,403.3z"/>
	<path class="st0" d="M345,403.3c0.1,4.7-1.7,8.7-4.5,12.4c-5.3,6.9-5.2,10.3-0.1,17.1c6.3,8.3,6.3,16.5,0,24.7
		c-2,2.6-3.7,5.2-3.8,8.8c-0.1,2.3-1.7,3.6-4.1,3.5c-2.4-0.2-3.4-1.8-3.4-4.1c-0.1-4.3,1.5-8,4.1-11.4c5.6-7.4,5.6-10.7,0.1-18
		c-5.8-7.7-5.8-16.1,0-23.8c5.5-7.4,5.5-10.7-0.1-18c-2.6-3.4-4.2-7.1-4.1-11.4c0-2.3,0.9-4,3.3-4.2c2.6-0.2,4.1,1.3,4.2,3.7
		c0.1,3.5,1.8,6.1,3.9,8.7C343.4,394.7,345,398.7,345,403.3z"/>
</g>
</svg>
