<svg width="26" height="18" viewBox="0 0 26 18" fill="none" xmlns="http://www.w3.org/2000/svg">
<path d="M24.7387 2.79668C24.5992 2.27725 24.3258 1.80357 23.9457 1.42303C23.5656 1.04249 23.0923 0.768444 22.573 0.62832C20.6617 0.114258 13 0.114258 13 0.114258C13 0.114258 5.33828 0.114258 3.42695 0.625586C2.90748 0.765255 2.4339 1.03915 2.05377 1.41976C1.67364 1.80037 1.40034 2.27429 1.26133 2.79395C0.75 4.70801 0.75 8.7002 0.75 8.7002C0.75 8.7002 0.75 12.6924 1.26133 14.6037C1.54297 15.6592 2.37422 16.4904 3.42695 16.7721C5.33828 17.2861 13 17.2861 13 17.2861C13 17.2861 20.6617 17.2861 22.573 16.7721C23.6285 16.4904 24.457 15.6592 24.7387 14.6037C25.25 12.6924 25.25 8.7002 25.25 8.7002C25.25 8.7002 25.25 4.70801 24.7387 2.79668ZM10.5664 12.3643V5.03613L16.9102 8.67285L10.5664 12.3643Z" fill="#999999"/>
</svg>
